<?xml version="1.0" encoding="UTF-8"?>
<svg width="238px" height="234px" viewBox="0 0 238 234" version="1.1" xmlns="http://www.w3.org/2000/svg" xmlns:xlink="http://www.w3.org/1999/xlink">
    <title>xueren</title>
    <g id="页面-1" stroke="none" stroke-width="1" fill="none" fill-rule="evenodd">
        <g id="作品1" transform="translate(-554.000000, -561.000000)" fill-rule="nonzero">
            <g id="图1" transform="translate(0.000000, -432.000000)">
                <g id="xueren" transform="translate(554.000000, 993.000000)">
                    <polygon id="路径" fill="#323333" points="162 125.908394 214.862427 67.8655738 217 69.8227533 164.137573 127.865574"></polygon>
                    <path d="M196.494077,91.8655277 C195.675587,91.8716769 195.006689,91.2620813 195,90.5039576 C194.993411,89.7458339 195.651546,89.1262683 196.470035,89.120119 L212.481881,88.8656199 L212.505923,88.8656199 C213.324413,88.8594705 213.993311,89.4690662 214,90.2271899 C214.006589,90.9853137 213.348454,91.6048794 212.529965,91.6110288 L196.518118,91.8655277 L196.494077,91.8655277 Z" id="路径" fill="#323333"></path>
                    <path d="M217.574848,46.9877948 C221.229049,46.1589813 222.026329,49.7538353 222.278801,51.4946765 C224.305221,48.4789934 230.115401,45.9526098 234.311087,49.7105638 C242.616089,57.1499146 235.855818,66.3833639 224.384949,72.0585734 C218.265824,75.0942279 207.857996,69.29919 210.389361,59.1470557 C211.362707,55.279259 213.910681,47.8299226 217.574848,46.9877948 Z" id="路径" fill="#C40000"></path>
                    <path d="M221.005059,79.1633316 C217.359734,73.7483864 209.631643,67.5236989 204.914762,65.4643536 C203.463413,64.8212248 204.026319,63.3616889 204.646872,62.6052626 C206.525487,60.3493131 208.651644,58.1400155 211.049082,59.093046 C217.281741,61.5855868 223.5144,66.9472156 226.647684,72.4621289 C227.834534,74.5581291 225.793152,77.0540023 223.934884,79.056699 C223.066788,79.9864034 221.713778,80.2329917 221.005059,79.1633316 L221.005059,79.1633316 Z" id="路径" fill="#C40000"></path>
                    <polygon id="路径" fill="#323333" points="81.0724413 143.865574 84 141.739302 26.9242356 61.8655738 24 63.9918458"></polygon>
                    <path d="M46.0109401,94.8582055 C46.990217,94.9442802 47.8639145,94.2666597 47.9857722,93.3265691 C48.1076299,92.3864786 47.4337398,91.5226545 46.4625676,91.3740538 L27.019168,88.872942 L26.9890594,88.872942 C26.0097826,88.7868676 25.1360855,89.4644881 25.0142278,90.4045785 C24.8923702,91.3446689 25.5662601,92.2084929 26.5374321,92.3570937 L45.9808317,94.8582055 L46.0109401,94.8582055 Z" id="路径" fill="#323333"></path>
                    <path d="M27.9610516,36.844878 C23.6355456,34.9252737 21.7669535,39.2511424 21.0348933,41.380281 C19.2398416,37.0983469 12.6245583,32.5156297 6.5040008,36.2331731 C-5.58334845,43.593909 0.587350308,56.8486409 13.4802999,66.7508248 C20.3596596,72.0466343 34.6833024,67.2645217 33.9746415,53.8813655 C33.6938513,48.7680536 32.3166422,38.7847598 27.9610516,36.844878 Z" id="路径" fill="#C40000"></path>
                    <path d="M16.1949653,76.2325852 C22.0418468,70.181047 33.1529658,64.0744638 39.5143458,62.5744805 C41.473528,62.0997152 41.1293935,60.0974438 40.5365278,58.9793371 C38.7545237,55.6422184 36.6556431,52.3050995 33.4493988,52.9450005 C25.1049858,54.6342018 16.0723036,59.9976743 10.8387314,66.3003564 C8.85569826,68.7085864 10.7774004,72.3828574 12.5934773,75.3897047 C13.4350738,76.7933589 15.0535289,77.4367003 16.1949653,76.2325852 L16.1949653,76.2325852 Z" id="路径" fill="#C40000"></path>
                    <path d="M162.056983,60.9499677 C162.827911,66.8503015 172.736501,68.651879 173.657609,59.4631639 C179.931825,-4.09434858 98.0366138,-16.1394683 87,24.2587314 C90.0503371,31.5855933 143.538033,38.0351069 146.157852,38.4871757 C153.002755,39.7094356 159.924417,44.6118696 162.056983,60.9499677 Z" id="路径" fill="#C40000"></path>
                    <path d="M111.995011,233.865574 C150.544483,233.865574 182,202.421119 182,163.872226 C182,125.323333 150.544483,93.8655738 111.995011,93.8655738 C73.4455399,93.8655738 42,125.310029 42,163.872226 C42,202.434423 73.442214,233.865574 111.995011,233.865574 Z" id="路径" fill="#E5E5E5"></path>
                    <path d="M105.496675,212 C137.174377,212 163,186.172545 163,154.5 C163,122.827455 137.174377,97 105.496675,97 C73.8189731,97 48,122.830779 48,154.5 C48,186.169221 73.8256232,212 105.496675,212 Z" id="路径" fill="#FFFFFF"></path>
                    <path d="M72.1397224,89.4339456 C68.7820401,85.5344707 66.1920187,90.0449078 67.597172,96.1712234 C69.0023254,102.297539 58.251734,105.302271 63.4117508,111.762446 C81.6887573,134.615105 138.055099,135.282823 156.665871,109.425432 C161.45207,102.771619 151.746165,102.567965 152.730774,98.6651513 C153.715383,94.7623379 154.750056,82.0723513 149.870403,88.7962746 C133.545925,111.308398 91.2044158,111.565469 72.1397224,89.4339456 Z" id="路径" fill="#C40000"></path>
                    <path d="M153.76882,96.8655738 C143.79353,104.941149 128.360061,110.587294 129.020518,114.794027 C129.65702,118.872362 146.130793,110.516337 156,103.06248 C154.442965,101.944063 152.879086,100.940529 153.310265,99.2578363 C153.504544,98.4687035 153.657598,97.6702284 153.76882,96.8655738 L153.76882,96.8655738 Z" id="路径" fill="#040000" opacity="0.2"></path>
                    <path d="M133,101.487929 C138.532223,103.238674 144.462253,104.720074 151.656502,116.305213 C158.850752,127.890352 166.874329,96.0911655 133,101.487929 Z" id="路径" fill="#040000" opacity="0.2"></path>
                    <path d="M177.884868,119.201117 C177.834178,118.898361 177.907675,118.588043 178.088921,118.339558 C178.270167,118.091073 178.544042,117.925152 178.849299,117.878899 C179.481743,117.783501 180.074119,118.210379 180.179549,118.837507 C180.435622,120.437391 180.728277,124.033824 180.887907,127.779006 C181.014281,130.78044 181.050863,133.877736 180.907861,136.135423 C180.863374,136.77286 180.312667,137.256969 179.670728,137.222947 C179.362065,137.204278 179.073659,137.063948 178.869497,136.833093 C178.665335,136.602237 178.562299,136.299945 178.583249,135.993284 C178.7196,133.775264 178.689669,130.773829 178.583249,127.878172 C178.426945,124.222239 178.140941,120.741501 177.884868,119.201117 L177.884868,119.201117 Z M174.346402,123.088438 C174.273838,122.677757 174.429612,122.260085 174.753963,121.995655 C175.078315,121.731225 175.52088,121.661097 175.911874,121.812175 C176.302868,121.963253 176.581579,122.312078 176.641084,122.724828 C176.897157,124.324711 177.196463,127.921144 177.359419,131.669632 C177.479141,134.667761 177.515723,137.761751 177.359419,140.026049 C177.336191,140.441578 177.090654,140.812846 176.716084,140.998813 C176.341515,141.184781 175.895396,141.156908 175.547203,140.925784 C175.19901,140.69466 175.002178,140.295754 175.031481,139.880605 C175.174483,137.66589 175.144552,134.66115 175.031481,131.768798 C174.891805,128.119477 174.589173,124.632127 174.346402,123.088438 Z M170.325721,124.810626 C170.236978,124.182796 170.671257,123.60026 171.30138,123.501891 C171.931504,123.403521 172.524539,123.82568 172.633705,124.450322 C172.883127,126.0469 173.182433,129.640027 173.338738,133.375293 C173.465112,136.376728 173.495042,139.470718 173.338738,141.73171 C173.300167,142.370671 172.747773,142.857572 172.104931,142.819235 C171.462088,142.780897 170.972229,142.231838 171.0108,141.592877 C171.153802,139.374857 171.11722,136.370116 171.0108,133.474459 C170.864472,129.83836 170.568492,126.35101 170.325721,124.810626 L170.325721,124.810626 Z M166.763976,126.155983 C166.714218,125.853354 166.788082,125.543504 166.969165,125.295242 C167.150248,125.046981 167.423561,124.880858 167.728408,124.833765 C168.361953,124.7385 168.954827,125.167211 169.058658,125.795679 C169.314731,127.392257 169.607386,130.985384 169.76369,134.72065 C169.890064,137.715473 169.926646,140.812769 169.783644,143.070456 C169.740916,143.708284 169.188514,144.192408 168.546511,144.154675 C168.238426,144.137704 167.950009,143.998804 167.745675,143.768995 C167.54134,143.539186 167.438107,143.237612 167.459032,142.931623 C167.595383,140.713602 167.565452,137.712168 167.459032,134.81651 C167.2861,131.183717 167.006747,127.693061 166.763976,126.155983 L166.763976,126.155983 Z M162.793179,127.613728 C162.692161,126.98207 163.125441,126.388613 163.760936,126.288205 C164.396432,126.187797 164.993494,126.61846 165.094512,127.250119 C165.350585,128.846697 165.646566,132.439824 165.80287,136.175089 C165.929244,139.176524 165.972477,142.27382 165.822824,144.531507 C165.81391,144.957554 165.570742,145.344457 165.189442,145.539278 C164.808141,145.734099 164.35008,145.70548 163.996325,145.464735 C163.642569,145.223989 163.450057,144.809866 163.494886,144.386063 C163.637888,142.177959 163.607958,139.173219 163.494886,136.277561 C163.325279,132.641462 163.03595,129.150807 162.793179,127.613728 L162.793179,127.613728 Z M158.380075,127.898005 C158.331238,127.595504 158.405465,127.286117 158.586388,127.038075 C158.767311,126.790033 159.040067,126.623711 159.344506,126.575787 C159.977592,126.482388 160.56928,126.910242 160.674756,127.537701 C160.930829,129.137585 161.230135,132.727406 161.379789,136.462672 C161.506162,139.460801 161.542744,142.561402 161.399742,144.8257 C161.334712,145.445177 160.789198,145.903104 160.163865,145.863147 C159.538532,145.823189 159.056499,145.299605 159.071805,144.676951 C159.214806,142.462236 159.184876,139.460801 159.071805,136.568449 C158.908849,132.925739 158.622845,129.441695 158.380075,127.898005 L158.380075,127.898005 Z M154.016854,125.580818 C153.945713,125.169312 154.10297,124.751606 154.428421,124.48761 C154.753873,124.223614 155.197112,124.15422 155.588451,124.305992 C155.979791,124.457764 156.258617,124.807196 156.318187,125.220514 C156.57426,126.817092 156.873566,130.410219 157.029871,134.145485 C157.149593,137.14692 157.186175,140.244215 157.029871,142.505208 C157.022437,142.931853 156.779994,143.320012 156.398598,143.515893 C156.017202,143.711774 155.558412,143.683761 155.204005,143.442954 C154.849597,143.202147 154.656774,142.787411 154.701933,142.363069 C154.844935,140.145049 154.815004,137.143614 154.701933,134.247957 C154.545628,130.608552 154.272927,127.117897 154.016854,125.580818 L154.016854,125.580818 Z" id="形状" fill="#C40000"></path>
                    <path d="M131.260133,87.9890398 C142.521698,74.549996 175.119736,88.9437259 179.776121,114.933889 C182.717699,131.307091 155.735402,137.802962 153.749837,128.780176 C151.764271,119.75739 148.90626,96.9050076 127.382598,102.920198 C105.858935,108.935389 119.333369,95.930293 131.260133,87.9890398 Z" id="路径" fill="#C40000"></path>
                    <path d="M129,101.865574 C132.816996,98.6745342 136.030355,94.8314362 138.488808,90.517194 C140.034585,87.8397884 141.193141,84.9590971 141.930292,81.9601222 C142.950767,81.8681857 143.976227,81.8432597 145,81.8855064 C144.220895,85.4264098 142.899134,88.8272105 141.081006,91.9688099 C139.142237,95.3461607 136.768778,98.4576505 134.020678,101.224557 C132.329056,101.261404 130.646113,101.476275 129,101.865574 L129,101.865574 Z" id="路径" fill="#8EC1C3"></path>
                    <path d="M111.497249,20.8655738 C127.414702,20.8665324 142.174687,29.1747121 150.419589,42.7743903 C158.664491,56.3740684 159.195742,73.2882476 151.820506,87.3773793 C151.389113,87.7840985 151.000032,88.2333749 150.659207,88.7183432 C134.243271,111.340403 91.6645426,111.598538 72.4930389,89.3754153 C72.3267141,89.1770623 72.147309,88.9900284 71.956022,88.815563 C63.9407825,74.7454675 64.020262,57.4797864 72.1646981,43.4839042 C80.3091343,29.488022 95.289907,20.8732726 111.497249,20.8655738 Z" id="路径" fill="#E5E5E5"></path>
                    <path d="M105.006673,96.8655738 C124.831696,96.8655738 141,80.6980189 141,60.8705782 C141,41.0431376 124.831696,24.8655738 105.006673,24.8655738 C85.1816494,24.8655738 69,41.0431374 69,60.8705782 C69,80.6980191 85.1749768,96.8655738 105.006673,96.8655738 L105.006673,96.8655738 Z" id="路径" fill="#FFFFFF"></path>
                    <path d="M67.791086,96.8655738 C77.328398,105.510455 93.645006,111.205702 92.9803042,115.714872 C92.3156025,120.224042 74.1305543,110.548691 65,102.827084 C66.4550683,100.997827 67.880374,99.1305325 67.791086,96.8655738 Z" id="路径" fill="#040000" opacity="0.2"></path>
                    <path d="M108.189458,50.3673214 C110.002525,50.5811137 111.240069,52.8742097 110.960623,55.4914425 C110.681178,58.1086754 108.964586,60.0603929 107.164825,59.850049 C105.365064,59.639705 104.114214,57.3431607 104.393659,54.7259278 C104.673104,52.108695 106.383043,50.163874 108.189458,50.3673214 L108.189458,50.3673214 Z M86.8351808,47.8811227 C88.6482483,48.0914669 89.8857918,50.388011 89.6063465,53.0052438 C89.3269012,55.6224767 87.6103089,57.5741942 85.8038946,57.3604019 C83.9974804,57.1466095 82.7599371,54.8604101 83.0393824,52.2397291 C83.3188277,49.6190481 85.0187865,47.6707787 86.8351808,47.8811227 Z" id="形状" fill="#323333"></path>
                    <path d="M102.90745,71.7066105 C102.457399,72.0650784 101.931491,72.3169072 101.369461,72.4430688 C99.1092857,73.0029103 96.451239,72.8962737 94.1442555,72.7429839 C93.0643197,72.6730038 91.9877273,72.5630349 90.9144781,72.4097448 C89.7442691,72.2631198 88.5740598,72.0765058 87.4172246,71.8798949 C86.1846043,71.6577355 84.9586709,71.420025 83.7394243,71.1667633 C82.4666826,70.8979505 81.1983988,70.6091434 79.9345729,70.300342 C78.6707471,69.9915406 77.3902039,69.6583016 76.0929434,69.300625 C74.8179726,68.9518349 73.5485742,68.5874936 72.2847484,68.207601 C71.0209225,67.8277085 69.7838442,67.447816 68.5735135,67.0679236 C67.3988464,66.6813663 66.2286373,66.2792579 65.0628862,65.8615984 C63.9751488,65.470598 62.8918695,65.0640464 61.813048,64.6419437 C60.8345303,64.2576081 59.8638139,63.8554997 58.900899,63.4356184 C58.0583484,63.0690554 57.2291715,62.6824983 56.4033383,62.2726143 C55.7346474,61.9393752 55.0458956,61.5728124 54.3972655,61.1795903 C53.8910198,60.8817655 53.407172,60.5476455 52.9495496,60.1798733 C52.6305621,59.9410254 52.3566129,59.6476739 52.1404335,59.313452 C51.9951225,59.1061626 51.9601933,58.8413305 52.0468169,58.6036529 C52.0602353,58.5747187 52.0758849,58.5468652 52.0936251,58.5203432 C52.3073974,58.2391426 52.594079,58.0213865 52.9228019,57.8905215 C53.4042367,57.6790608 53.9077186,57.521475 54.4240132,57.4206544 C55.1138854,57.2713462 55.8114991,57.1600973 56.5136723,57.0874154 C57.379627,56.9974409 58.2455818,56.9441226 59.1148801,56.9107986 C60.1179165,56.8708099 61.1209529,56.8608129 62.1473936,56.8674776 C63.2741378,56.8674776 64.4042256,56.9041339 65.5309698,56.9507874 C66.7502162,56.9996625 67.9683482,57.0674211 69.1853657,57.1540632 C70.4692524,57.2429269 71.7509101,57.3473418 73.0303389,57.4673079 C74.3498889,57.5917171 75.669439,57.7305667 76.9889891,57.8838567 C78.3085392,58.0371467 79.6381197,58.2082094 80.9777306,58.3970448 C82.2928227,58.581437 83.605686,58.7813803 84.9163203,58.9968748 C86.1890621,59.2057046 87.4595749,59.427864 88.7278589,59.663353 C89.9337316,59.8855123 91.1351463,60.1354416 92.3321031,60.4131406 C93.4421301,60.6630699 94.5488136,60.9329934 95.6488101,61.2262438 C96.6518465,61.492835 97.6214483,61.7794206 98.5943937,62.0959976 C99.4369444,62.3725858 100.266121,62.672501 101.091954,63.0157373 C101.769769,63.2924888 102.428718,63.6130809 103.064593,63.9754656 C103.577712,64.2458587 104.053167,64.581945 104.478874,64.9751826 C104.913671,65.4124909 105.092923,66.0415716 104.953645,66.6413777 C104.71071,68.0650992 104.269576,69.4480546 103.64301,70.7502145 C103.471235,71.1189641 103.220103,71.4454931 102.90745,71.7066105 L102.90745,71.7066105 Z" id="路径" fill="#D87833"></path>
                    <path d="M82.2077456,78.0797493 C81.9394092,77.6382745 81.9304352,77.08797 82.1842366,76.6381193 C82.4380379,76.1882686 82.9156139,75.9079982 83.4353402,75.9038965 C83.9550665,75.8997947 84.4370789,76.1724917 84.6980659,76.6182796 C85.9048877,78.6385463 88.5952336,80.5199403 91.9523321,81.7069709 C94.6008721,82.647297 97.4053172,83.0803994 100.216728,82.9832769 C103.139885,82.9020637 105.996001,82.0961159 108.524463,80.6389741 C111.704872,78.7608865 114.461894,75.6230257 116.192116,70.8186927 C116.460009,70.0727206 117.286896,69.6833841 118.03902,69.9490853 C118.791145,70.2147865 119.183692,71.0349098 118.9158,71.7808819 C116.915543,77.2795782 113.725132,80.9067998 109.994652,83.1023107 C107.053271,84.8030576 103.729904,85.7475844 100.326743,85.8500054 C97.1514525,85.9614929 93.9837311,85.4733904 90.9922087,84.4116816 C87.0083631,82.9998095 83.7579451,80.672039 82.2077456,78.0797493 L82.2077456,78.0797493 Z" id="路径" fill="#323333"></path>
                    <path d="M85.4999059,143.865574 C88.1291757,143.865574 90.4994877,142.281561 91.5053535,139.852303 C92.5112193,137.423045 91.9545028,134.627058 90.0948508,132.768361 C88.2351988,130.909664 85.4389265,130.354384 83.0101857,131.361498 C80.581445,132.368612 78.9986505,134.739737 79,137.369007 C79.0091821,140.954454 81.9144543,143.858235 85.4999059,143.865574 Z" id="路径" fill="#C40202"></path>
                    <path d="M79.4999059,164.865574 C82.1291757,164.865574 84.4994877,163.281561 85.5053535,160.852303 C86.5112193,158.423045 85.9545028,155.627058 84.0948508,153.768361 C82.2351988,151.909664 79.4389265,151.354384 77.0101857,152.361498 C74.581445,153.368612 72.9986505,155.739737 73,158.369007 C73.007353,161.955215 75.9136949,164.860064 79.4999059,164.865574 Z" id="路径" fill="#CE0000"></path>
                    <path d="M81.4965684,186.865574 C84.1258378,186.866923 86.496963,185.284128 87.5040763,182.855387 C88.5111896,180.426646 87.9559092,177.630374 86.0972121,175.770722 C84.238515,173.911071 81.4425283,173.354355 79.0132705,174.36022 C76.5840127,175.366086 75,177.736398 75,180.365668 C75.0073355,183.951122 77.9111188,186.856396 81.4965684,186.865574 L81.4965684,186.865574 Z" id="路径" fill="#C40202"></path>
                    <path d="M81,33.6381689 C104.654373,28.3243526 131.037968,31.2469514 152,48.8655738 C150.67227,30.4133466 109.194135,5.26238949 81,33.6381689 Z" id="路径" fill="#E5E5E5"></path>
                    <path d="M171.661157,52.2745529 C164.982973,50.5298186 158.154616,54.5282537 156.409235,61.205518 C154.663855,67.8827823 158.662327,74.7105759 165.340283,76.4561813 C172.01824,78.2017866 178.847118,74.2042423 180.59337,67.5272057 C181.432095,64.3202218 180.962175,60.9114377 179.287009,58.0509247 C177.611844,55.1904116 174.868692,53.1125496 171.661157,52.2745529 Z" id="路径" fill="#EFEFEF"></path>
                    <path d="M173.536606,52.275485 C168.189432,50.530242 162.725025,54.5184208 161.327986,61.1875052 C159.930947,67.8565897 163.125574,74.6882538 168.462978,76.4500867 C173.800383,78.2119195 179.27456,74.2071509 180.671599,67.5314305 C182.068638,60.8557102 178.880524,54.0207282 173.536606,52.275485 L173.536606,52.275485 Z" id="路径" fill="#FAFAFA"></path>
                    <path d="M155.195262,29.9326221 C137.272108,16.5373196 110.241891,13.3328754 88.9240735,15.4746717 C81.355479,16.2337059 76.8270313,26.1044499 82.6497989,31.9952148 C106.231841,26.7149774 132.041316,31.3582862 152.951106,48.8655738 C161.513015,44.314669 162.292283,35.2326605 155.195262,29.9326221 Z" id="路径" fill="#FFFFFF"></path>
                    <path d="M121.826581,72.8002821 C121.74396,72.7999795 121.661603,72.7911593 121.580877,72.7739681 C115.121895,71.4286682 112.102767,68.978183 111.978232,68.8762165 C111.502024,68.4613867 111.450234,67.7514892 111.861404,67.2748328 C112.272574,66.7981764 112.997288,66.7279747 113.496211,67.116472 C113.543332,67.1526536 116.269635,69.3136855 122.072285,70.5241267 C122.659529,70.6489565 123.056477,71.1857672 122.993429,71.7698318 C122.930381,72.3538963 122.427552,72.7979475 121.826581,72.8002821 L121.826581,72.8002821 Z M79.1784518,79.8655737 C78.6465889,79.8657124 78.1805961,79.5175604 78.0412533,79.0159511 C77.9019105,78.5143418 78.1237823,77.9837014 78.5827042,77.7209879 C78.6264596,77.6946739 80.6223826,76.5039684 82.6014765,73.4449734 C82.8174134,73.0787244 83.2213649,72.8575741 83.6537425,72.8688921 C84.08612,72.8802101 84.477378,73.1221759 84.6729426,73.4991965 C84.8685073,73.876217 84.8369231,74.3276505 84.5906679,74.6751498 C82.2648958,78.2670021 79.8785394,79.6484838 79.7674678,79.7044008 C79.5892025,79.8081604 79.3859325,79.8637813 79.1784518,79.8655737 L79.1784518,79.8655737 Z" id="形状" fill="#323333"></path>
                    <path d="M61.3593433,60.8699992 C61.2259535,60.8698536 61.1035975,60.7992869 61.0414428,60.6866556 C60.9792882,60.5740244 60.9875389,60.4378194 61.0628795,60.3327732 C61.4193023,59.84323 61.1428249,58.6638757 61.0162447,58.2887713 C60.9725456,58.1143013 61.076963,57.9371363 61.255892,57.882162 C61.434821,57.8271878 61.6279372,57.9129382 61.699111,58.0789668 C61.75907,58.2601615 62.2753834,59.8654819 61.6524761,60.7237721 C61.5854301,60.8150325 61.4761338,60.8695541 61.3593433,60.8699992 L61.3593433,60.8699992 Z M70.2032943,67.0210785 C70.0749583,67.0259771 69.9536202,66.9652106 69.8849315,66.8616413 C69.8162428,66.7580721 69.8106239,66.627412 69.8701888,66.5188198 C70.5609487,65.2560792 70.5609487,63.7507757 69.8701888,62.488035 C69.7761642,62.3243827 69.8363604,62.119026 70.0057175,62.0256846 C70.1750746,61.9323432 70.3915478,61.9852133 70.493096,62.1447189 C71.3033482,63.6153927 71.3033482,65.3723888 70.493096,66.8430626 C70.4345036,66.9455713 70.3253316,67.0126321 70.2032943,67.0210785 L70.2032943,67.0210785 Z M97.7377945,67.5773776 C97.6037603,67.5669376 97.4870188,67.486029 97.4351465,67.3676251 C97.3832741,67.2492213 97.4049331,67.1130942 97.4912964,67.0147208 C99.0002644,65.2981406 97.8643747,63.1333421 97.824402,63.0411554 C97.7324175,62.8726148 97.8010202,62.6648246 97.9776304,62.577043 C98.1542407,62.4892615 98.3719798,62.5547295 98.4639644,62.7232701 C98.5239235,62.8313512 99.8696697,65.3807906 98.0542446,67.4502234 C97.9781289,67.5410107 97.8590348,67.5888644 97.7377945,67.5773776 L97.7377945,67.5773776 Z M86.5621052,67.8634743 C86.4316279,67.8468567 86.321079,67.7635608 86.2738716,67.6462973 C86.2266643,67.5290339 86.250337,67.3965286 86.3355935,67.3008173 C87.7346366,65.7463586 86.8419138,63.3336096 86.8352517,63.308179 C86.8037834,63.14363 86.9011592,62.9813881 87.0658098,62.9240366 C87.2304604,62.866685 87.4144576,62.9309183 87.5014626,63.0761227 C87.5447662,63.1905615 88.5407517,65.8925859 86.8718932,67.7490356 C86.7943714,67.8331186 86.6787462,67.8758317 86.5621052,67.8634743 L86.5621052,67.8634743 Z" id="形状" fill="#000000"></path>
                </g>
            </g>
        </g>
    </g>
</svg>